<svg xmlns="http://www.w3.org/2000/svg" width="100" height="28.031" viewBox="0 0 100 28.031">
  <metadata><?xpacket begin="﻿" id="W5M0MpCehiHzreSzNTczkc9d"?>
<x:xmpmeta xmlns:x="adobe:ns:meta/" x:xmptk="Adobe XMP Core 5.6-c142 79.160924, 2017/07/13-01:06:39        ">
   <rdf:RDF xmlns:rdf="http://www.w3.org/1999/02/22-rdf-syntax-ns#">
      <rdf:Description rdf:about=""/>
   </rdf:RDF>
</x:xmpmeta>
                                                                                                    
                                                                                                    
                                                                                                    
                                                                                                    
                                                                                                    
                                                                                                    
                                                                                                    
                                                                                                    
                                                                                                    
                                                                                                    
                                                                                                    
                                                                                                    
                                                                                                    
                                                                                                    
                                                                                                    
                                                                                                    
                                                                                                    
                                                                                                    
                                                                                                    
                                                                                                    
                           
<?xpacket end="w"?></metadata>
<defs>
    <style>
      .cls-1 {
        fill: #fff;
        fill-rule: evenodd;
      }
    </style>
  </defs>
  <path id="Rialto" class="cls-1" d="M19.1,23.535c-2.378-3.529-3.284-7.958-6.984-9.085,3.36-.526,6.266-2.515,6.266-6.457,0-4.73-4.3-6.644-7.965-6.644H0V1.537c2.152,0,2.34,1.351,2.378,4.129V23.348C2.34,26.089,2.151,27.44,0,27.44v0.188H8.04V27.44c-2.152,0-2.34-1.351-2.378-4.092V14.638H8.946c3.888,0.225,4.341,7.621,7.625,11.337a5.459,5.459,0,0,0,4.266,1.652h4.039V27.44C22.573,27.44,20.572,25.713,19.1,23.535ZM5.661,14.451V5.666C5.7,2.888,5.888,1.537,8.04,1.537H9.248c2.189,0,5.474,1.727,5.474,6.457s-3.1,6.457-5.474,6.457H5.661Zm26.954,8.86V14.939c0-3.792.264-5.481,0.642-5.669V9.082H27.142V9.27c2.152,0,2.341,1.352,2.378,4.092V23.31c-0.038,2.74-.227,4.129-2.378,4.129v0.188h7.852V27.44C32.842,27.44,32.615,26.051,32.615,23.31ZM31.068,5.141a2.025,2.025,0,0,0,2-2.065,2.058,2.058,0,0,0-2-2.1,2.034,2.034,0,0,0-2,2.1A2,2,0,0,0,31.068,5.141ZM53.793,27.7c-1.736,0-1.85-1.464-1.85-3.979v-9.46c0-3.754-2.642-5.518-6.191-5.518-4.039,0-5.4,2.215-6.04,3.6-0.642,1.351-.189,2.7.831,2.928a1.373,1.373,0,0,0,1.7-1.652c-0.264-1.089-1.359-1.539-.793-2.74,0.566-1.276,1.737-1.99,4.19-1.99,2.756,0,3.209,2.365,3.209,5.556v3.341a9.936,9.936,0,0,1-2,.9c-2.6.864-7.965,1.389-8.229,5.368-0.264,3.754,3.737,4.467,6.568,3.6a6.559,6.559,0,0,0,3.7-3.266c0.3,3.04,2.265,3.566,4.417,3.566a3.185,3.185,0,0,0,1.774-.451V27.327A2.881,2.881,0,0,1,53.793,27.7Zm-7.965-.45c-2.34,1.126-5.021-.075-4.605-4.054C41.6,19.819,45.186,19.481,47,18.805a10.807,10.807,0,0,0,1.85-.863v5.593a4.068,4.068,0,0,0,.038.676A7.019,7.019,0,0,1,45.828,27.252Zm17.4-3.941V5.816c0-3.754.264-5.443,0.642-5.631V0H57.72V0.185c2.152,0,2.378,1.352,2.378,4.092V23.31c0,2.74-.227,4.129-2.378,4.129v0.188h7.89V27.44C63.458,27.44,63.231,26.051,63.231,23.31Zm13.817,4.43c-2.454,0-3.02-2.365-3.02-4.918V9.27h3.926V9.082H74.028V4.915H73.839c-0.453,2.1-1.434,2.628-2.907,2.816V9.082H69.2V9.27h1.736V22.635c0,4.467,3.02,5.368,5.549,5.368a3.987,3.987,0,0,0,2.038-.451V27.327A3.292,3.292,0,0,1,77.048,27.74Zm12.76-19A9.619,9.619,0,0,0,80.6,19.256c0.34,5.819,5.436,9.235,10.909,8.709,5.36-.488,8.683-5.218,8.494-10.436C99.811,11.861,95.13,8.369,89.808,8.745Zm1.7,19.071c-4.115.525-7.172-2.891-7.625-8.784-0.415-5.744,1.812-9.8,5.927-10.136,3.888-.3,6.568,4.129,6.87,8.784C97.018,22.71,95.017,27.327,91.506,27.815Z"/>
</svg>
